# xmcd
#
# Track frame offsets: 
#        150
#        15185
#        26460
#        40840
#        63462
#        73327
#        87340
#        95942
#        105605
#        119510
#        130462
#        146340
#        161475
#        178242
#        193075
#        226745
#        246690
#
# Disc length: 3536 seconds
#
# Revision: 2
# Processed by: cddbd v1.5.2PL0 Copyright (c) Steve Scherf et al.
# Submitted via: ExactAudioCopyFreeDBPlugin 1.0
#
DISCID=f50dce11
DTITLE=Burning Life - Burning Life
DYEAR=1993
DGENRE=Soundtrack
TTITLE0=I feel so good - Jumping The Q.
TTITLE1=Halleluja I love him so - Maria Schneider
TTITLE2=I shot the Sheriff - Engine 54
TTITLE3=Helpless - Oscar Benton
TTITLE4=I'm a woman - Maria Schrader
TTITLE5=Road Theme - Jumping The Q.
TTITLE6=Jack a rag - The Gamblers
TTITLE7=Without you - Neil Quinton
TTITLE8=Fly the night away - Big Mo's Mushroom
TTITLE9=Why don't you do right - Maria Schneider
TTITLE10=Not the same dreams Anymore - Oscar Benton
TTITLE11=Dead end strret - The Kinks
TTITLE12=Never Pretend - Hot Chocolate
TTITLE13=The Way out - JumpingThe Q.
TTITLE14=The Bluest Blues - AlvinLee feat. George Harrison
TTITLE15=Fine young girl - Graham Bell feat. George Harrison
TTITLE16=Addicted to you - The Graham Goble Encounter
EXTD=
EXTT0=
EXTT1=
EXTT2=
EXTT3=
EXTT4=
EXTT5=
EXTT6=
EXTT7=
EXTT8=
EXTT9=
EXTT10=
EXTT11=
EXTT12=
EXTT13=
EXTT14=
EXTT15=
EXTT16=
PLAYORDER=
